<?xml version="1.0" encoding="utf-8"?>
<!-- Generator: Adobe Illustrator 21.1.0, SVG Export Plug-In . SVG Version: 6.00 Build 0)  -->
<svg version="1.1" xmlns="http://www.w3.org/2000/svg" xmlns:xlink="http://www.w3.org/1999/xlink" x="0px" y="0px"
	 viewBox="0 0 792 612" style="enable-background:new 0 0 792 612;" xml:space="preserve">
<style type="text/css">
	.st0{fill:#769AD1;stroke:#0B4E8F;stroke-miterlimit:10;}
	.st1{fill:#0C76A6;stroke:#3F63AE;stroke-miterlimit:10;}
	.st2{fill:#4964AE;stroke:#3A54A5;stroke-miterlimit:10;}
	.st3{opacity:0.21;}
	.st4{fill:url(#SVGID_1_);stroke:#0B4E8F;stroke-miterlimit:10;}
	.st5{fill:url(#SVGID_2_);stroke:#3F63AE;stroke-miterlimit:10;}
</style>
<g id="Layer_3">
	<path class="st0" d="M429.9,126c0,142.6-5.5,258-49.4,258l1.3,0C523.9,373.5,483.4,263.8,429.9,126L429.9,126z"/>
	<path class="st1" d="M172,405.1c273.5,10.4,277.4-20.5,349-21.1c1.3,0,2.5,0.3,3.7,0.8l0,0c73.8,32.1,32.2,62.1,13.3,72.5
		c-4,2.2-8.3,4.1-12.7,5.5l0,0c-2.1,0.7-4.2,1-6.4,1.1C478.3,464.2,172,435.9,172,405.1"/>
	<path class="st2" d="M205.1,384c0,0,60.6,0,136.4,0l1.2,0c35.6,0,63.3-115.4,63.3-258h-0.8c0,142.6-240.6,88.6-200.9,258H205.1z"/>
</g>
<g id="Layer_2" class="st3">
	<linearGradient id="SVGID_1_" gradientUnits="userSpaceOnUse" x1="327.902" y1="255.0375" x2="405.9983" y2="255.0375">
		<stop  offset="0" style="stop-color:#FFFFFF;stop-opacity:0"/>
		<stop  offset="7.380247e-03" style="stop-color:#F6F6F6;stop-opacity:7.380247e-03"/>
		<stop  offset="4.767627e-02" style="stop-color:#C8C8C8;stop-opacity:4.767627e-02"/>
		<stop  offset="9.308982e-02" style="stop-color:#9D9D9D;stop-opacity:9.308982e-02"/>
		<stop  offset="0.1419" style="stop-color:#777777;stop-opacity:0.1419"/>
		<stop  offset="0.195" style="stop-color:#575757;stop-opacity:0.195"/>
		<stop  offset="0.2537" style="stop-color:#3B3B3B;stop-opacity:0.2537"/>
		<stop  offset="0.32" style="stop-color:#252525;stop-opacity:0.32"/>
		<stop  offset="0.3974" style="stop-color:#141414;stop-opacity:0.3974"/>
		<stop  offset="0.4931" style="stop-color:#090909;stop-opacity:0.4931"/>
		<stop  offset="0.6274" style="stop-color:#020202;stop-opacity:0.6274"/>
		<stop  offset="1" style="stop-color:#000000"/>
	</linearGradient>
	<path class="st4" d="M406,126h-0.8c0,17.3-3.5,31.7-9.7,43.9c-1.4,2.7-2.2,5.7-2.3,8.8c-3,104.1-28.7,205.3-65.3,205.3l14.7-0.1
		c1.2,0,2.4-0.1,3.6-0.3C380.1,376.3,406,263.9,406,126z"/>
	<linearGradient id="SVGID_2_" gradientUnits="userSpaceOnUse" x1="369.4397" y1="405.1168" x2="369.4397" y2="463.8841">
		<stop  offset="0" style="stop-color:#FFFFFF;stop-opacity:0"/>
		<stop  offset="7.380247e-03" style="stop-color:#F6F6F6;stop-opacity:7.380247e-03"/>
		<stop  offset="4.767627e-02" style="stop-color:#C8C8C8;stop-opacity:4.767627e-02"/>
		<stop  offset="9.308982e-02" style="stop-color:#9D9D9D;stop-opacity:9.308982e-02"/>
		<stop  offset="0.1419" style="stop-color:#777777;stop-opacity:0.1419"/>
		<stop  offset="0.195" style="stop-color:#575757;stop-opacity:0.195"/>
		<stop  offset="0.2537" style="stop-color:#3B3B3B;stop-opacity:0.2537"/>
		<stop  offset="0.32" style="stop-color:#252525;stop-opacity:0.32"/>
		<stop  offset="0.3974" style="stop-color:#141414;stop-opacity:0.3974"/>
		<stop  offset="0.4931" style="stop-color:#090909;stop-opacity:0.4931"/>
		<stop  offset="0.6274" style="stop-color:#020202;stop-opacity:0.6274"/>
		<stop  offset="1" style="stop-color:#000000"/>
	</linearGradient>
	<path class="st5" d="M172,405.1c273.5,10.4,272.4,34.4,335.4,26.9c1.3-0.2,15.5-2,22.5-8.1l27.8-18.8c22.2,24.9-1,38.7-19.7,52.2
		c-3.7,2.7-8.3,4.1-12.7,5.5l0,0c-2.1,0.7-4.2,1-6.4,1.1C478.4,464.2,172,435.9,172,405.1"/>
</g>
</svg>
