<?xml version="1.0" encoding="UTF-8"?> <svg xmlns="http://www.w3.org/2000/svg" xmlns:xlink="http://www.w3.org/1999/xlink" fill-opacity="1" color-rendering="auto" color-interpolation="auto" text-rendering="auto" stroke="black" stroke-linecap="square" width="1428" stroke-miterlimit="10" shape-rendering="auto" stroke-opacity="1" fill="black" stroke-dasharray="none" font-weight="normal" stroke-width="1" height="1185" font-family="'Dialog'" font-style="normal" stroke-linejoin="miter" font-size="12px" stroke-dashoffset="0" image-rendering="auto"> <!--Generated by ySVG 2.5--> <defs id="genericDefs"></defs> <g> <defs id="defs1"> <clipPath clipPathUnits="userSpaceOnUse" id="clipPath1"> <path d="M0 0 L1428 0 L1428 1185 L0 1185 L0 0 Z"></path> </clipPath> <clipPath clipPathUnits="userSpaceOnUse" id="clipPath2"> <path d="M-208 -265 L1220 -265 L1220 920 L-208 920 L-208 -265 Z"></path> </clipPath> <clipPath clipPathUnits="userSpaceOnUse" id="clipPath3"> <path d="M307 173 L307 548 L563 548 L563 173 Z"></path> </clipPath> <clipPath clipPathUnits="userSpaceOnUse" id="clipPath4"> <path d="M1 382 L1 497 L155 497 L155 382 Z"></path> </clipPath> <clipPath clipPathUnits="userSpaceOnUse" id="clipPath5"> <path d="M1 138 L1 253 L155 253 L155 138 Z"></path> </clipPath> <clipPath clipPathUnits="userSpaceOnUse" id="clipPath6"> <path d="M-193 254 L-193 382 L-39 382 L-39 254 Z"></path> </clipPath> <clipPath clipPathUnits="userSpaceOnUse" id="clipPath7"> <path d="M348 -249 L348 -58 L502 -58 L502 -249 Z"></path> </clipPath> <clipPath clipPathUnits="userSpaceOnUse" id="clipPath8"> <path d="M201 -34 L201 110 L355 110 L355 -34 Z"></path> </clipPath> <clipPath clipPathUnits="userSpaceOnUse" id="clipPath9"> <path d="M509 -34 L509 110 L663 110 L663 -34 Z"></path> </clipPath> <clipPath clipPathUnits="userSpaceOnUse" id="clipPath10"> <path d="M841 252 L841 380 L995 380 L995 252 Z"></path> </clipPath> <clipPath clipPathUnits="userSpaceOnUse" id="clipPath11"> <path d="M841 435 L841 521 L995 521 L995 435 Z"></path> </clipPath> <clipPath clipPathUnits="userSpaceOnUse" id="clipPath12"> <path d="M647 435 L647 521 L801 521 L801 435 Z"></path> </clipPath> <clipPath clipPathUnits="userSpaceOnUse" id="clipPath13"> <path d="M1035 435 L1035 521 L1189 521 L1189 435 Z"></path> </clipPath> <clipPath clipPathUnits="userSpaceOnUse" id="clipPath14"> <path d="M1050 284 L1050 348 L1204 348 L1204 284 Z"></path> </clipPath> <clipPath clipPathUnits="userSpaceOnUse" id="clipPath15"> <path d="M385 600 L385 744 L485 744 L485 600 Z"></path> </clipPath> </defs> <g fill="white" text-rendering="geometricPrecision" shape-rendering="geometricPrecision" transform="translate(208,265)" stroke="white"> <rect x="-208" width="1428" height="1185" y="-265" clip-path="url(#clipPath2)" stroke="none"></rect> </g> <g fill="rgb(255,204,0)" text-rendering="geometricPrecision" shape-rendering="geometricPrecision" transform="matrix(1,0,0,1,208,265)" stroke="rgb(255,204,0)"> <rect x="308" width="254" height="373" y="174" clip-path="url(#clipPath2)" stroke="none"></rect> <rect x="307" y="173" clip-path="url(#clipPath2)" fill="yellow" width="1" height="375" stroke="none"></rect> <rect x="308" y="173" clip-path="url(#clipPath2)" fill="yellow" width="254" height="1" stroke="none"></rect> <rect x="308" y="547" clip-path="url(#clipPath2)" fill="rgb(178,142,0)" width="255" height="1" stroke="none"></rect> <rect x="562" y="173" clip-path="url(#clipPath2)" fill="rgb(178,142,0)" width="1" height="374" stroke="none"></rect> </g> <g font-size="13px" stroke-linecap="butt" transform="matrix(1,0,0,1,208,265)" text-rendering="geometricPrecision" font-family="sans-serif" shape-rendering="geometricPrecision" font-weight="bold" stroke-miterlimit="1.45"> <text x="410.2173" xml:space="preserve" y="191.0698" clip-path="url(#clipPath3)" stroke="none">Sailboat</text> <text x="498.4453" font-size="12px" y="212.9907" clip-path="url(#clipPath3)" stroke="none" font-weight="normal" xml:space="preserve">{Singleton}</text> </g> <g text-rendering="geometricPrecision" shape-rendering="geometricPrecision" transform="matrix(1,0,0,1,208,265)"> <line y2="222" fill="none" x1="308" clip-path="url(#clipPath3)" x2="562" y1="222"></line> <text stroke-linecap="butt" x="312.5" y="239.6919" clip-path="url(#clipPath3)" font-family="sans-serif" stroke="none" stroke-miterlimit="1.45" xml:space="preserve">- Instance : Sailboat*</text> <text stroke-linecap="butt" x="312.5" y="254.3931" clip-path="url(#clipPath3)" font-family="sans-serif" stroke="none" stroke-miterlimit="1.45" xml:space="preserve"> </text> <text stroke-linecap="butt" x="312.5" y="269.0942" clip-path="url(#clipPath3)" font-family="sans-serif" stroke="none" stroke-miterlimit="1.45" xml:space="preserve">- Sail : Actuator*</text> <text stroke-linecap="butt" x="312.5" y="283.7954" clip-path="url(#clipPath3)" font-family="sans-serif" stroke="none" stroke-miterlimit="1.45" xml:space="preserve">- Rudder : Actuator*</text> <text stroke-linecap="butt" x="312.5" y="298.4966" clip-path="url(#clipPath3)" font-family="sans-serif" stroke="none" stroke-miterlimit="1.45" xml:space="preserve">- Wind Sensor : Sensor *</text> <text stroke-linecap="butt" x="312.5" y="313.1978" clip-path="url(#clipPath3)" font-family="sans-serif" stroke="none" stroke-miterlimit="1.45" xml:space="preserve">- GPS : Sensor *</text> <text stroke-linecap="butt" x="312.5" y="327.8989" clip-path="url(#clipPath3)" font-family="sans-serif" stroke="none" stroke-miterlimit="1.45" xml:space="preserve"> </text> <text stroke-linecap="butt" x="312.5" y="342.6001" clip-path="url(#clipPath3)" font-family="sans-serif" stroke="none" stroke-miterlimit="1.45" xml:space="preserve">- Controller : Controller*</text> <text stroke-linecap="butt" x="312.5" y="357.3013" clip-path="url(#clipPath3)" font-family="sans-serif" stroke="none" stroke-miterlimit="1.45" xml:space="preserve"> </text> <text stroke-linecap="butt" x="312.5" y="372.0024" clip-path="url(#clipPath3)" font-family="sans-serif" stroke="none" stroke-miterlimit="1.45" xml:space="preserve">- Communication</text> <line y2="379" fill="none" x1="308" clip-path="url(#clipPath3)" x2="562" y1="379"></line> <text stroke-linecap="butt" x="312.5" y="396.7036" clip-path="url(#clipPath3)" font-family="sans-serif" stroke="none" stroke-miterlimit="1.45" xml:space="preserve">+ static GetInstance() : Sailboat*</text> <text stroke-linecap="butt" x="312.5" y="411.4048" clip-path="url(#clipPath3)" font-family="sans-serif" stroke="none" stroke-miterlimit="1.45" xml:space="preserve"> </text> <text stroke-linecap="butt" x="312.5" y="426.106" clip-path="url(#clipPath3)" font-family="sans-serif" stroke="none" stroke-miterlimit="1.45" xml:space="preserve">+ GetData()</text> <text stroke-linecap="butt" x="312.5" y="440.8071" clip-path="url(#clipPath3)" font-family="sans-serif" stroke="none" stroke-miterlimit="1.45" xml:space="preserve">+ GetSensor(int) : Sensor*</text> <text stroke-linecap="butt" x="312.5" y="455.5083" clip-path="url(#clipPath3)" font-family="sans-serif" stroke="none" stroke-miterlimit="1.45" xml:space="preserve">+ GetActuator(int) : Actuator*</text> <text stroke-linecap="butt" x="312.5" y="470.2095" clip-path="url(#clipPath3)" font-family="sans-serif" stroke="none" stroke-miterlimit="1.45" xml:space="preserve"> </text> <text stroke-linecap="butt" x="312.5" y="484.9106" clip-path="url(#clipPath3)" font-family="sans-serif" stroke="none" stroke-miterlimit="1.45" xml:space="preserve">+ SetController(Controller*)</text> <text stroke-linecap="butt" x="312.5" y="499.6118" clip-path="url(#clipPath3)" font-family="sans-serif" stroke="none" stroke-miterlimit="1.45" xml:space="preserve"> </text> <text stroke-linecap="butt" x="312.5" y="514.313" clip-path="url(#clipPath3)" font-family="sans-serif" stroke="none" stroke-miterlimit="1.45" xml:space="preserve">+ Init()</text> <text stroke-linecap="butt" x="312.5" y="529.0142" clip-path="url(#clipPath3)" font-family="sans-serif" stroke="none" stroke-miterlimit="1.45" xml:space="preserve">+ Update()</text> <text stroke-linecap="butt" x="312.5" y="543.7153" clip-path="url(#clipPath3)" font-family="sans-serif" stroke="none" stroke-miterlimit="1.45" xml:space="preserve">+ Communicate()</text> <rect x="2" y="383" clip-path="url(#clipPath2)" fill="rgb(255,204,0)" width="152" height="113" stroke="none"></rect> <rect x="1" y="382" clip-path="url(#clipPath2)" fill="yellow" width="1" height="115" stroke="none"></rect> <rect x="2" y="382" clip-path="url(#clipPath2)" fill="yellow" width="152" height="1" stroke="none"></rect> <rect x="2" y="496" clip-path="url(#clipPath2)" fill="rgb(178,142,0)" width="153" height="1" stroke="none"></rect> <rect x="154" y="382" clip-path="url(#clipPath2)" fill="rgb(178,142,0)" width="1" height="114" stroke="none"></rect> </g> <g font-size="13px" stroke-linecap="butt" transform="matrix(1,0,0,1,208,265)" text-rendering="geometricPrecision" font-family="sans-serif" shape-rendering="geometricPrecision" font-weight="bold" stroke-miterlimit="1.45"> <text x="66.4377" xml:space="preserve" y="400.5698" clip-path="url(#clipPath4)" stroke="none">Sail</text> <text x="95.2949" font-size="12px" y="422.4907" clip-path="url(#clipPath4)" stroke="none" font-weight="normal" xml:space="preserve">{Actuator}</text> </g> <g text-rendering="geometricPrecision" shape-rendering="geometricPrecision" transform="matrix(1,0,0,1,208,265)"> <line y2="432" fill="none" x1="2" clip-path="url(#clipPath4)" x2="154" y1="432"></line> <text stroke-linecap="butt" x="6" y="449.1919" clip-path="url(#clipPath4)" font-family="sans-serif" stroke="none" stroke-miterlimit="1.45" xml:space="preserve">- HWServo : ServoMotor</text> <line y2="456" fill="none" x1="2" clip-path="url(#clipPath4)" x2="154" y1="456"></line> <text stroke-linecap="butt" x="6" y="473.8931" clip-path="url(#clipPath4)" font-family="sans-serif" stroke="none" stroke-miterlimit="1.45" xml:space="preserve">+ ApplyCommand(float)</text> <text stroke-linecap="butt" x="6" y="488.5942" clip-path="url(#clipPath4)" font-family="sans-serif" stroke="none" stroke-miterlimit="1.45" xml:space="preserve">+ GetData()</text> <rect x="2" y="139" clip-path="url(#clipPath2)" fill="rgb(255,204,0)" width="152" height="113" stroke="none"></rect> <rect x="1" y="138" clip-path="url(#clipPath2)" fill="yellow" width="1" height="115" stroke="none"></rect> <rect x="2" y="138" clip-path="url(#clipPath2)" fill="yellow" width="152" height="1" stroke="none"></rect> <rect x="2" y="252" clip-path="url(#clipPath2)" fill="rgb(178,142,0)" width="153" height="1" stroke="none"></rect> <rect x="154" y="138" clip-path="url(#clipPath2)" fill="rgb(178,142,0)" width="1" height="114" stroke="none"></rect> </g> <g font-size="13px" stroke-linecap="butt" transform="matrix(1,0,0,1,208,265)" text-rendering="geometricPrecision" font-family="sans-serif" shape-rendering="geometricPrecision" font-weight="bold" stroke-miterlimit="1.45"> <text x="55.25" xml:space="preserve" y="156.5698" clip-path="url(#clipPath5)" stroke="none">Rudder</text> <text x="95.2949" font-size="12px" y="178.4907" clip-path="url(#clipPath5)" stroke="none" font-weight="normal" xml:space="preserve">{Actuator}</text> </g> <g text-rendering="geometricPrecision" shape-rendering="geometricPrecision" transform="matrix(1,0,0,1,208,265)"> <line y2="188" fill="none" x1="2" clip-path="url(#clipPath5)" x2="154" y1="188"></line> <text stroke-linecap="butt" x="6" y="205.1919" clip-path="url(#clipPath5)" font-family="sans-serif" stroke="none" stroke-miterlimit="1.45" xml:space="preserve">- HWServo : ServoMotor</text> <line y2="212" fill="none" x1="2" clip-path="url(#clipPath5)" x2="154" y1="212"></line> <text stroke-linecap="butt" x="6" y="229.8931" clip-path="url(#clipPath5)" font-family="sans-serif" stroke="none" stroke-miterlimit="1.45" xml:space="preserve">+ ApplyCommand(float)</text> <text stroke-linecap="butt" x="6" y="244.5942" clip-path="url(#clipPath5)" font-family="sans-serif" stroke="none" stroke-miterlimit="1.45" xml:space="preserve">+ GetData()</text> <rect x="-192" y="255" clip-path="url(#clipPath2)" fill="rgb(255,204,0)" width="152" height="126" stroke="none"></rect> <rect x="-193" y="254" clip-path="url(#clipPath2)" fill="yellow" width="1" height="128" stroke="none"></rect> <rect x="-192" y="254" clip-path="url(#clipPath2)" fill="yellow" width="152" height="1" stroke="none"></rect> <rect x="-192" y="381" clip-path="url(#clipPath2)" fill="rgb(178,142,0)" width="153" height="1" stroke="none"></rect> <rect x="-40" y="254" clip-path="url(#clipPath2)" fill="rgb(178,142,0)" width="1" height="127" stroke="none"></rect> <text stroke-linecap="butt" x="-153.3623" y="271.8145" clip-path="url(#clipPath6)" font-family="sans-serif" stroke="none" stroke-miterlimit="1.45" xml:space="preserve">&lt;&lt;Interface&gt;&gt;</text> </g> <g font-size="13px" stroke-linecap="butt" transform="matrix(1,0,0,1,208,265)" text-rendering="geometricPrecision" font-family="sans-serif" shape-rendering="geometricPrecision" font-weight="bold" stroke-miterlimit="1.45"> <text x="-142.7236" xml:space="preserve" y="296.521" clip-path="url(#clipPath6)" stroke="none">Actuator</text> </g> <g text-rendering="geometricPrecision" shape-rendering="geometricPrecision" transform="matrix(1,0,0,1,208,265)"> <line y2="304" fill="none" x1="-192" clip-path="url(#clipPath6)" x2="-40" y1="304"></line> <line y2="314" fill="none" x1="-192" clip-path="url(#clipPath6)" x2="-40" y1="314"></line> <text stroke-linecap="butt" x="-188" y="331.4419" clip-path="url(#clipPath6)" font-family="sans-serif" stroke="none" stroke-miterlimit="1.45" xml:space="preserve">#ApplyCommand(float)</text> <text stroke-linecap="butt" x="-188" y="346.1431" clip-path="url(#clipPath6)" font-family="sans-serif" stroke="none" stroke-miterlimit="1.45" xml:space="preserve">#GetData()</text> <text stroke-linecap="butt" x="-188" y="360.8442" clip-path="url(#clipPath6)" font-family="sans-serif" stroke="none" stroke-miterlimit="1.45" xml:space="preserve"> </text> <text stroke-linecap="butt" x="-188" y="375.5454" clip-path="url(#clipPath6)" font-family="sans-serif" stroke="none" stroke-miterlimit="1.45" xml:space="preserve">#Init()</text> <rect x="349" y="-248" clip-path="url(#clipPath2)" fill="rgb(255,204,0)" width="152" height="189" stroke="none"></rect> <rect x="348" y="-249" clip-path="url(#clipPath2)" fill="yellow" width="1" height="191" stroke="none"></rect> <rect x="349" y="-249" clip-path="url(#clipPath2)" fill="yellow" width="152" height="1" stroke="none"></rect> <rect x="349" y="-59" clip-path="url(#clipPath2)" fill="rgb(178,142,0)" width="153" height="1" stroke="none"></rect> <rect x="501" y="-249" clip-path="url(#clipPath2)" fill="rgb(178,142,0)" width="1" height="190" stroke="none"></rect> <text stroke-linecap="butt" x="387.6377" y="-232.4355" clip-path="url(#clipPath7)" font-family="sans-serif" stroke="none" stroke-miterlimit="1.45" xml:space="preserve">&lt;&lt;Interface&gt;&gt;</text> </g> <g font-size="13px" stroke-linecap="butt" transform="matrix(1,0,0,1,208,265)" text-rendering="geometricPrecision" font-family="sans-serif" shape-rendering="geometricPrecision" font-weight="bold" stroke-miterlimit="1.45"> <text x="402.9641" xml:space="preserve" y="-207.729" clip-path="url(#clipPath7)" stroke="none">Sensor</text> </g> <g text-rendering="geometricPrecision" shape-rendering="geometricPrecision" transform="matrix(1,0,0,1,208,265)"> <line y2="-199" fill="none" x1="349" clip-path="url(#clipPath7)" x2="501" y1="-199"></line> <text stroke-linecap="butt" x="353" y="-182.8081" clip-path="url(#clipPath7)" font-family="sans-serif" stroke="none" stroke-miterlimit="1.45" xml:space="preserve">StoredValue : double</text> <text stroke-linecap="butt" x="353" y="-168.1069" clip-path="url(#clipPath7)" font-family="sans-serif" stroke="none" stroke-miterlimit="1.45" xml:space="preserve">StoredRawValue : char</text> <line y2="-160" fill="none" x1="349" clip-path="url(#clipPath7)" x2="501" y1="-160"></line> <text stroke-linecap="butt" x="353" y="-143.4058" clip-path="url(#clipPath7)" font-family="sans-serif" stroke="none" stroke-miterlimit="1.45" xml:space="preserve">#GetRawValue() : char</text> <text stroke-linecap="butt" x="353" y="-128.7046" clip-path="url(#clipPath7)" font-family="sans-serif" stroke="none" stroke-miterlimit="1.45" xml:space="preserve">#GetValue() : double</text> <text stroke-linecap="butt" x="353" y="-114.0034" clip-path="url(#clipPath7)" font-family="sans-serif" stroke="none" stroke-miterlimit="1.45" xml:space="preserve">#GetData() : char*</text> <text stroke-linecap="butt" x="353" y="-99.3022" clip-path="url(#clipPath7)" font-family="sans-serif" stroke="none" stroke-miterlimit="1.45" xml:space="preserve"> </text> <text stroke-linecap="butt" x="353" y="-84.6011" clip-path="url(#clipPath7)" font-family="sans-serif" stroke="none" stroke-miterlimit="1.45" xml:space="preserve">#Init()</text> <text stroke-linecap="butt" x="353" y="-69.8999" clip-path="url(#clipPath7)" font-family="sans-serif" stroke="none" stroke-miterlimit="1.45" xml:space="preserve">#UpdateMeasurements()</text> <rect x="202" y="-33" clip-path="url(#clipPath2)" fill="rgb(255,204,0)" width="152" height="142" stroke="none"></rect> <rect x="201" y="-34" clip-path="url(#clipPath2)" fill="yellow" width="1" height="144" stroke="none"></rect> <rect x="202" y="-34" clip-path="url(#clipPath2)" fill="yellow" width="152" height="1" stroke="none"></rect> <rect x="202" y="109" clip-path="url(#clipPath2)" fill="rgb(178,142,0)" width="153" height="1" stroke="none"></rect> <rect x="354" y="-34" clip-path="url(#clipPath2)" fill="rgb(178,142,0)" width="1" height="143" stroke="none"></rect> </g> <g font-size="13px" stroke-linecap="butt" transform="matrix(1,0,0,1,208,265)" text-rendering="geometricPrecision" font-family="sans-serif" shape-rendering="geometricPrecision" font-weight="bold" stroke-miterlimit="1.45"> <text x="238.2764" xml:space="preserve" y="-15.9302" clip-path="url(#clipPath8)" stroke="none">Wind Sensor</text> <text x="301.9629" font-size="12px" y="5.9907" clip-path="url(#clipPath8)" stroke="none" font-weight="normal" xml:space="preserve">{Sensor}</text> </g> <g fill="rgb(255,204,0)" text-rendering="geometricPrecision" shape-rendering="geometricPrecision" transform="matrix(1,0,0,1,208,265)" stroke="rgb(255,204,0)"> <rect x="510" width="152" height="142" y="-33" clip-path="url(#clipPath2)" stroke="none"></rect> <rect x="509" y="-34" clip-path="url(#clipPath2)" fill="yellow" width="1" height="144" stroke="none"></rect> <rect x="510" y="-34" clip-path="url(#clipPath2)" fill="yellow" width="152" height="1" stroke="none"></rect> <rect x="510" y="109" clip-path="url(#clipPath2)" fill="rgb(178,142,0)" width="153" height="1" stroke="none"></rect> <rect x="662" y="-34" clip-path="url(#clipPath2)" fill="rgb(178,142,0)" width="1" height="143" stroke="none"></rect> </g> <g font-size="13px" stroke-linecap="butt" transform="matrix(1,0,0,1,208,265)" text-rendering="geometricPrecision" font-family="sans-serif" shape-rendering="geometricPrecision" font-weight="bold" stroke-miterlimit="1.45"> <text x="572.2732" xml:space="preserve" y="-15.9302" clip-path="url(#clipPath9)" stroke="none">GPS</text> <text x="609.9629" font-size="12px" y="5.9907" clip-path="url(#clipPath9)" stroke="none" font-weight="normal" xml:space="preserve">{Sensor}</text> </g> <g text-rendering="geometricPrecision" shape-rendering="geometricPrecision" transform="matrix(1,0,0,1,208,265)"> <line y2="15" fill="none" x1="510" clip-path="url(#clipPath9)" x2="662" y1="15"></line> <line y2="25" fill="none" x1="510" clip-path="url(#clipPath9)" x2="662" y1="25"></line> <text stroke-linecap="butt" x="514" y="42.6919" clip-path="url(#clipPath9)" font-family="sans-serif" stroke="none" stroke-miterlimit="1.45" xml:space="preserve">+ GetCoordX()</text> <text stroke-linecap="butt" x="514" y="57.3931" clip-path="url(#clipPath9)" font-family="sans-serif" stroke="none" stroke-miterlimit="1.45" xml:space="preserve">+ GetCoordY()</text> <rect x="842" y="253" clip-path="url(#clipPath2)" fill="rgb(255,204,0)" width="152" height="126" stroke="none"></rect> <rect x="841" y="252" clip-path="url(#clipPath2)" fill="yellow" width="1" height="128" stroke="none"></rect> <rect x="842" y="252" clip-path="url(#clipPath2)" fill="yellow" width="152" height="1" stroke="none"></rect> <rect x="842" y="379" clip-path="url(#clipPath2)" fill="rgb(178,142,0)" width="153" height="1" stroke="none"></rect> <rect x="994" y="252" clip-path="url(#clipPath2)" fill="rgb(178,142,0)" width="1" height="127" stroke="none"></rect> <text stroke-linecap="butt" x="880.8877" y="269.8145" clip-path="url(#clipPath10)" font-family="sans-serif" stroke="none" stroke-miterlimit="1.45" xml:space="preserve">&lt;&lt;Interface&gt;&gt;</text> </g> <g font-size="13px" stroke-linecap="butt" transform="matrix(1,0,0,1,208,265)" text-rendering="geometricPrecision" font-family="sans-serif" shape-rendering="geometricPrecision" font-weight="bold" stroke-miterlimit="1.45"> <text x="887.1941" xml:space="preserve" y="294.521" clip-path="url(#clipPath10)" stroke="none">Controller</text> </g> <g text-rendering="geometricPrecision" shape-rendering="geometricPrecision" transform="matrix(1,0,0,1,208,265)"> <line y2="302" fill="none" x1="842" clip-path="url(#clipPath10)" x2="994" y1="302"></line> <line y2="312" fill="none" x1="842" clip-path="url(#clipPath10)" x2="994" y1="312"></line> <text stroke-linecap="butt" x="846.25" y="329.4419" clip-path="url(#clipPath10)" font-family="sans-serif" stroke="none" stroke-miterlimit="1.45" xml:space="preserve">#Init()</text> <text stroke-linecap="butt" x="846.25" y="344.1431" clip-path="url(#clipPath10)" font-family="sans-serif" stroke="none" stroke-miterlimit="1.45" xml:space="preserve">#Update()</text> <text stroke-linecap="butt" x="846.25" y="358.8442" clip-path="url(#clipPath10)" font-family="sans-serif" stroke="none" stroke-miterlimit="1.45" xml:space="preserve">#Log()</text> <rect x="842" y="436" clip-path="url(#clipPath2)" fill="rgb(255,204,0)" width="152" height="84" stroke="none"></rect> <rect x="841" y="435" clip-path="url(#clipPath2)" fill="yellow" width="1" height="86" stroke="none"></rect> <rect x="842" y="435" clip-path="url(#clipPath2)" fill="yellow" width="152" height="1" stroke="none"></rect> <rect x="842" y="520" clip-path="url(#clipPath2)" fill="rgb(178,142,0)" width="153" height="1" stroke="none"></rect> <rect x="994" y="435" clip-path="url(#clipPath2)" fill="rgb(178,142,0)" width="1" height="85" stroke="none"></rect> </g> <g font-size="13px" stroke-linecap="butt" transform="matrix(1,0,0,1,208,265)" text-rendering="geometricPrecision" font-family="sans-serif" shape-rendering="geometricPrecision" font-weight="bold" stroke-miterlimit="1.45"> <text x="876.3586" xml:space="preserve" y="453.3198" clip-path="url(#clipPath11)" stroke="none">Line Follower</text> <text x="928.2148" font-size="12px" y="475.2407" clip-path="url(#clipPath11)" stroke="none" font-weight="normal" xml:space="preserve">{Controller}</text> </g> <g text-rendering="geometricPrecision" shape-rendering="geometricPrecision" transform="matrix(1,0,0,1,208,265)"> <line y2="484" fill="none" x1="842" clip-path="url(#clipPath11)" x2="994" y1="484"></line> <text stroke-linecap="butt" x="846.25" y="501.9419" clip-path="url(#clipPath11)" font-family="sans-serif" stroke="none" stroke-miterlimit="1.45" xml:space="preserve">- Line</text> <line y2="509" fill="none" x1="842" clip-path="url(#clipPath11)" x2="994" y1="509"></line> <rect x="648" y="436" clip-path="url(#clipPath2)" fill="rgb(255,204,0)" width="152" height="84" stroke="none"></rect> <rect x="647" y="435" clip-path="url(#clipPath2)" fill="yellow" width="1" height="86" stroke="none"></rect> <rect x="648" y="435" clip-path="url(#clipPath2)" fill="yellow" width="152" height="1" stroke="none"></rect> <rect x="648" y="520" clip-path="url(#clipPath2)" fill="rgb(178,142,0)" width="153" height="1" stroke="none"></rect> <rect x="800" y="435" clip-path="url(#clipPath2)" fill="rgb(178,142,0)" width="1" height="85" stroke="none"></rect> </g> <g font-size="13px" stroke-linecap="butt" transform="matrix(1,0,0,1,208,265)" text-rendering="geometricPrecision" font-family="sans-serif" shape-rendering="geometricPrecision" font-weight="bold" stroke-miterlimit="1.45"> <text x="698.6086" xml:space="preserve" y="453.3198" clip-path="url(#clipPath12)" stroke="none">Standby</text> <text x="734.2148" font-size="12px" y="475.2407" clip-path="url(#clipPath12)" stroke="none" font-weight="normal" xml:space="preserve">{Controller}</text> </g> <g fill="rgb(255,204,0)" text-rendering="geometricPrecision" shape-rendering="geometricPrecision" transform="matrix(1,0,0,1,208,265)" stroke="rgb(255,204,0)"> <rect x="1036" width="152" height="84" y="436" clip-path="url(#clipPath2)" stroke="none"></rect> <rect x="1035" y="435" clip-path="url(#clipPath2)" fill="yellow" width="1" height="86" stroke="none"></rect> <rect x="1036" y="435" clip-path="url(#clipPath2)" fill="yellow" width="152" height="1" stroke="none"></rect> <rect x="1036" y="520" clip-path="url(#clipPath2)" fill="rgb(178,142,0)" width="153" height="1" stroke="none"></rect> <rect x="1188" y="435" clip-path="url(#clipPath2)" fill="rgb(178,142,0)" width="1" height="85" stroke="none"></rect> </g> <g font-size="13px" stroke-linecap="butt" transform="matrix(1,0,0,1,208,265)" text-rendering="geometricPrecision" font-family="sans-serif" shape-rendering="geometricPrecision" font-weight="bold" stroke-miterlimit="1.45"> <text x="1054.4736" xml:space="preserve" y="453.3198" clip-path="url(#clipPath13)" stroke="none">Waypoint Follower</text> <text x="1122.2148" font-size="12px" y="475.2407" clip-path="url(#clipPath13)" stroke="none" font-weight="normal" xml:space="preserve">{Controller}</text> </g> <g text-rendering="geometricPrecision" shape-rendering="geometricPrecision" transform="matrix(1,0,0,1,208,265)"> <line y2="484" fill="none" x1="1036" clip-path="url(#clipPath13)" x2="1188" y1="484"></line> <text stroke-linecap="butt" x="1040.25" y="501.9419" clip-path="url(#clipPath13)" font-family="sans-serif" stroke="none" stroke-miterlimit="1.45" xml:space="preserve">- List&lt;Waypoints&gt;</text> <line y2="509" fill="none" x1="1036" clip-path="url(#clipPath13)" x2="1188" y1="509"></line> <rect x="1051" y="285" clip-path="url(#clipPath2)" fill="rgb(255,204,0)" width="152" height="62" stroke="none"></rect> <rect x="1050" y="284" clip-path="url(#clipPath2)" fill="yellow" width="1" height="64" stroke="none"></rect> <rect x="1051" y="284" clip-path="url(#clipPath2)" fill="yellow" width="152" height="1" stroke="none"></rect> <rect x="1051" y="347" clip-path="url(#clipPath2)" fill="rgb(178,142,0)" width="153" height="1" stroke="none"></rect> <rect x="1203" y="284" clip-path="url(#clipPath2)" fill="rgb(178,142,0)" width="1" height="63" stroke="none"></rect> </g> <g font-size="13px" stroke-linecap="butt" transform="matrix(1,0,0,1,208,265)" text-rendering="geometricPrecision" font-family="sans-serif" shape-rendering="geometricPrecision" font-weight="bold" stroke-miterlimit="1.45"> <text x="1098.3586" xml:space="preserve" y="302.8198" clip-path="url(#clipPath14)" stroke="none">Go Home</text> <text x="1137.2148" font-size="12px" y="324.7407" clip-path="url(#clipPath14)" stroke="none" font-weight="normal" xml:space="preserve">{Controller}</text> </g> <g fill="rgb(255,204,0)" text-rendering="geometricPrecision" shape-rendering="geometricPrecision" transform="matrix(1,0,0,1,208,265)" stroke="rgb(255,204,0)"> <rect x="386" width="98" height="142" y="601" clip-path="url(#clipPath2)" stroke="none"></rect> <rect x="385" y="600" clip-path="url(#clipPath2)" fill="yellow" width="1" height="144" stroke="none"></rect> <rect x="386" y="600" clip-path="url(#clipPath2)" fill="yellow" width="98" height="1" stroke="none"></rect> <rect x="386" y="743" clip-path="url(#clipPath2)" fill="rgb(178,142,0)" width="99" height="1" stroke="none"></rect> <rect x="484" y="600" clip-path="url(#clipPath2)" fill="rgb(178,142,0)" width="1" height="143" stroke="none"></rect> </g> <g font-size="13px" stroke-linecap="butt" transform="matrix(1,0,0,1,208,265)" text-rendering="geometricPrecision" font-family="sans-serif" shape-rendering="geometricPrecision" font-weight="bold" stroke-miterlimit="1.45"> <text x="386.3882" xml:space="preserve" y="618.0698" clip-path="url(#clipPath15)" stroke="none">Communication</text> </g> <g text-rendering="geometricPrecision" shape-rendering="geometricPrecision" transform="matrix(1,0,0,1,208,265)"> <line y2="625" fill="none" x1="386" clip-path="url(#clipPath15)" x2="484" y1="625"></line> <line y2="635" fill="none" x1="386" clip-path="url(#clipPath15)" x2="484" y1="635"></line> <text stroke-linecap="butt" x="390.5" y="652.9907" clip-path="url(#clipPath15)" font-family="sans-serif" stroke="none" stroke-miterlimit="1.45" xml:space="preserve">+ Init()</text> <text stroke-linecap="butt" x="390.5" y="667.6919" clip-path="url(#clipPath15)" font-family="sans-serif" stroke="none" stroke-miterlimit="1.45" xml:space="preserve">+ Communicate()</text> <rect x="371.125" y="824.1875" clip-path="url(#clipPath2)" fill="rgb(255,204,0)" width="128.75" height="80" stroke="none"></rect> <rect stroke-linecap="butt" x="371.125" y="824.1875" clip-path="url(#clipPath2)" fill="none" width="128.75" height="80" stroke-miterlimit="1.45"></rect> <text stroke-linecap="butt" x="403.8242" y="868.9014" clip-path="url(#clipPath2)" font-family="sans-serif" stroke="none" stroke-miterlimit="1.45" xml:space="preserve">Rasberry PI</text> <path fill="none" stroke-miterlimit="1.45" d="M155.0248 422.8714 L299.676 390.7042" clip-path="url(#clipPath2)" stroke-linecap="butt"></path> <path stroke-miterlimit="1.45" d="M307.4853 388.9676 L294.686 386.6917 L298.6999 390.9213 L296.8568 396.4533 Z" clip-path="url(#clipPath2)" stroke-linecap="butt" stroke="none"></path> <path fill="none" stroke-miterlimit="1.45" d="M155.0248 231.4422 L300.2177 298.2513" clip-path="url(#clipPath2)" stroke-linecap="butt"></path> <path stroke-miterlimit="1.45" d="M307.4853 301.5953 L298.674 292.037 L299.3093 297.8333 L294.4939 301.1214 Z" clip-path="url(#clipPath2)" stroke-linecap="butt" stroke="none"></path> <path fill="none" stroke-miterlimit="1.45" d="M1.011 244.8126 L-26.3432 262.1558" clip-path="url(#clipPath2)" stroke-linecap="butt"></path> </g> <g stroke-linecap="butt" transform="matrix(1,0,0,1,208,265)" fill="white" text-rendering="geometricPrecision" shape-rendering="geometricPrecision" stroke="white" stroke-miterlimit="1.45"> <path d="M-39.0116 270.1877 L-22.2859 266.6876 L-28.7115 256.5529 Z" stroke="none" clip-path="url(#clipPath2)"></path> <path fill="none" d="M-39.0116 270.1877 L-22.2859 266.6876 L-28.7115 256.5529 Z" clip-path="url(#clipPath2)" stroke="black"></path> <path fill="none" d="M1.011 391.9811 L-26.2842 374.9568" clip-path="url(#clipPath2)" stroke="black"></path> <path d="M-39.0116 367.0186 L-28.611 380.5769 L-22.2605 370.395 Z" clip-path="url(#clipPath2)" stroke="none"></path> <path fill="none" d="M-39.0116 367.0186 L-28.611 380.5769 L-22.2605 370.395 Z" clip-path="url(#clipPath2)" stroke="black"></path> <path fill="none" d="M333.1429 -34.0234 L342.75 -46.5715" clip-path="url(#clipPath2)" stroke="black"></path> <path d="M351.8687 -58.4816 L337.3781 -49.4249 L346.9062 -42.13 Z" clip-path="url(#clipPath2)" stroke="none"></path> <path fill="none" d="M351.8687 -58.4816 L337.3781 -49.4249 L346.9062 -42.13 Z" clip-path="url(#clipPath2)" stroke="black"></path> <path fill="none" d="M313.1645 110.0035 L340.4318 165.8366" clip-path="url(#clipPath2)" stroke="black"></path> <path fill="black" d="M343.9425 173.0251 L343.1693 160.0481 L339.993 164.938 L334.1837 164.4365 Z" clip-path="url(#clipPath2)" stroke="none"></path> <path fill="none" d="M525.6053 -34.0234 L511.6395 -50.6784" clip-path="url(#clipPath2)" stroke="black"></path> <path d="M502.0014 -62.1722 L507.6845 -46.0569 L516.8795 -53.7674 Z" clip-path="url(#clipPath2)" stroke="none"></path> <path fill="none" d="M502.0014 -62.1722 L507.6845 -46.0569 L516.8795 -53.7674 Z" clip-path="url(#clipPath2)" stroke="black"></path> <path fill="none" d="M552.3984 110.0035 L526.3713 165.7757" clip-path="url(#clipPath2)" stroke="black"></path> <path fill="black" d="M522.9883 173.0251 L532.5938 164.2654 L526.7943 164.8695 L523.5319 160.0365 Z" clip-path="url(#clipPath2)" stroke="none"></path> <path fill="none" stroke-dasharray="6,2" d="M841.2587 323.9376 L568.5177 348.5139" clip-path="url(#clipPath2)" stroke="black"></path> <path fill="black" stroke-dasharray="6,2" d="M564.5339 348.8729 L577.0239 353.7718 L564.5339 348.8729 L575.947 341.8202 Z" clip-path="url(#clipPath2)" stroke="none"></path> </g> <g text-rendering="geometricPrecision" shape-rendering="geometricPrecision" transform="matrix(1,0,0,1,208,265)"> <path fill="none" d="M564.5339 348.8729 L577.0239 353.7718 L564.5339 348.8729 L575.947 341.8202 Z" clip-path="url(#clipPath2)"></path> <path fill="none" stroke-miterlimit="1.45" d="M918.25 435.2467 L918.25 396.2331" clip-path="url(#clipPath2)" stroke-linecap="butt"></path> </g> <g stroke-linecap="butt" transform="matrix(1,0,0,1,208,265)" fill="white" text-rendering="geometricPrecision" shape-rendering="geometricPrecision" stroke="white" stroke-miterlimit="1.45"> <path d="M918.25 381.2331 L912.25 397.2331 L924.25 397.2331 Z" stroke="none" clip-path="url(#clipPath2)"></path> <path fill="none" d="M918.25 381.2331 L912.25 397.2331 L924.25 397.2331 Z" clip-path="url(#clipPath2)" stroke="black"></path> <path fill="none" d="M776.1838 435.2664 L829.6884 390.7253" clip-path="url(#clipPath2)" stroke="black"></path> <path d="M841.2166 381.1284 L825.0811 386.7538 L832.7586 395.9763 Z" clip-path="url(#clipPath2)" stroke="none"></path> <path fill="none" d="M841.2166 381.1284 L825.0811 386.7538 L832.7586 395.9763 Z" clip-path="url(#clipPath2)" stroke="black"></path> <path fill="none" d="M1060.3162 435.2664 L1006.8116 390.7253" clip-path="url(#clipPath2)" stroke="black"></path> <path d="M995.2834 381.1284 L1003.7414 395.9763 L1011.4189 386.7538 Z" clip-path="url(#clipPath2)" stroke="none"></path> <path fill="none" d="M995.2834 381.1284 L1003.7414 395.9763 L1011.4189 386.7538 Z" clip-path="url(#clipPath2)" stroke="black"></path> <path fill="none" d="M1050.2272 317 L1010.226 317" clip-path="url(#clipPath2)" stroke="black"></path> <path d="M995.226 317 L1011.226 323 L1011.226 311 Z" clip-path="url(#clipPath2)" stroke="none"></path> <path fill="none" d="M995.226 317 L1011.226 323 L1011.226 311 Z" clip-path="url(#clipPath2)" stroke="black"></path> <path fill="none" d="M435.5 600.0189 L435.5 556.0042" clip-path="url(#clipPath2)" stroke="black"></path> <path fill="black" d="M435.5 548.0042 L430.5 560.0042 L435.5 557.0042 L440.5 560.0042 Z" clip-path="url(#clipPath2)" stroke="none"></path> <path fill="none" d="M452.0312 743.9919 L452.0312 816.1946" clip-path="url(#clipPath2)" stroke="black"></path> <path fill="black" d="M452.0312 824.1946 L457.0312 812.1946 L452.0312 815.1946 L447.0312 812.1946 Z" clip-path="url(#clipPath2)" stroke="none"></path> <path fill="none" d="M417.0312 824.1829 L417.0312 752.0218" clip-path="url(#clipPath2)" stroke="black"></path> <path fill="black" d="M417.0312 744.0218 L412.0312 756.0218 L417.0312 753.0218 L422.0312 756.0218 Z" clip-path="url(#clipPath2)" stroke="none"></path> </g> </g> </svg> 